<svg xmlns="http://www.w3.org/2000/svg" viewBox="0 0 560 360" role="img" aria-labelledby="title desc">
  <title id="title">Náhľad bytového domu</title>
  <desc id="desc">Moderný zástupný obrázok bytového domu pre aplikáciu e-housing.</desc>
  <defs>
    <linearGradient id="sky" x1="0" x2="1" y1="0" y2="1">
      <stop offset="0" stop-color="#dceef2"/>
      <stop offset="1" stop-color="#f7efe0"/>
    </linearGradient>
    <linearGradient id="facade" x1="0" x2="1" y1="0" y2="1">
      <stop offset="0" stop-color="#f7f8f5"/>
      <stop offset="1" stop-color="#d9e2dc"/>
    </linearGradient>
  </defs>
  <rect width="560" height="360" fill="url(#sky)"/>
  <circle cx="462" cy="74" r="34" fill="#f2b84b" opacity=".9"/>
  <path d="M0 284c82-34 145-28 213-5 80 27 143 30 222 6 49-15 85-16 125-5v80H0z" fill="#b6d6c7"/>
  <path d="M105 82h272c20 0 36 16 36 36v170H69V118c0-20 16-36 36-36z" fill="url(#facade)" stroke="#b6c7c2" stroke-width="2"/>
  <path d="M86 118h310v170H86z" fill="#edf2ee"/>
  <path d="M114 132h54v42h-54zm76 0h54v42h-54zm76 0h54v42h-54zm76 0h36v42h-36zM114 194h54v42h-54zm76 0h54v42h-54zm76 0h54v42h-54zm76 0h36v42h-36z" fill="#174d57" opacity=".16"/>
  <path d="M190 260h86v28h-86z" fill="#174d57" opacity=".75"/>
  <path d="M212 260h22v28h-22" fill="#f2b84b" opacity=".9"/>
  <path d="M61 289h392" stroke="#174d57" stroke-opacity=".3" stroke-width="4" stroke-linecap="round"/>
  <path d="M414 209c30-4 55 17 57 46 1 13-4 25-12 34h-91c-10-11-15-26-10-42 6-20 25-35 56-38z" fill="#2f7f6d" opacity=".85"/>
  <path d="M452 247v56" stroke="#7a5f3a" stroke-width="7" stroke-linecap="round"/>
</svg>
